<?xml version="1.0" encoding="UTF-8"?><svg xmlns="http://www.w3.org/2000/svg" viewBox="0 0 1200 1200"><defs><style>.c{fill:#d2a936;}</style></defs><g id="a"><circle cx="600" cy="600" r="600"/></g><g id="b"><path class="c" d="M903.47,774.45l4.61-30.49-252.1-232.25s-8.94-7.46-18.48-28.37v.13c-.63-42.16-2.07-82.92-4.75-118.2-5.06-66.7-18.84-113.82-32.74-113.82h-.01c-13.9,0-27.68,47.12-32.74,113.82-2.68,35.28-4.12,76.04-4.75,118.2v-.13c-9.54,20.92-18.48,28.37-18.48,28.37l-252.1,232.25,4.61,30.49,266.33-147.13v-.07c1.47,89.38,4.56,162.62,4.56,174.5,0,7.94,4.87,38.18,10.99,69.18h0l-79.42,57.94v17.91l94.14-12.76h0c2.74,8.97,5.15,14.54,6.86,14.54s4.13-5.57,6.86-14.54h0l94.14,12.76v-17.91l-79.42-57.94h0c6.12-30.99,10.99-61.24,10.99-69.18,0-11.88,3.09-85.13,4.57-174.51v.08l266.33,147.13Z"/></g></svg>