<?xml version="1.0" encoding="UTF-8"?><svg xmlns="http://www.w3.org/2000/svg" viewBox="0 0 1200 1200"><defs><style>.c{fill:#d2a936;}</style></defs><g id="a"><circle cx="600" cy="600" r="600"/></g><g id="b"><g><path class="c" d="M715.31,453.16c-6.61,33.04-11.26,69.5-24.06,94.37-18.26,35.49-58.23,57.36-90.67,57.36-34.49,0-72.71-23.53-90.67-62.91-10.77-23.63-18.78-82.22-21.78-112.73-8.6-87.41,25.48-118.58,112.45-120.43,96.36-2.05,131.39,61.06,114.73,144.34Z"/><path class="c" d="M495.1,418.62c-13.57-7.4-25.91-6.17-23.44,9.87,2.47,16.04,6.17,59.22,14.81,66.62,8.63,7.4,17.27,9.87,22.21,1.23,4.94-8.63-13.57-77.72-13.57-77.72Z"/><path class="c" d="M709.04,418.62c13.57-7.4,25.91-6.17,23.45,9.87-2.47,16.04-6.17,59.22-14.81,66.62-8.64,7.4-17.27,9.87-22.2,1.23-4.94-8.63,13.57-77.72,13.57-77.72Z"/><g><path class="c" d="M656.58,301.68c-4.64-18.55,2.35-26.83-34.01-35.56-38.65-9.28-68.03-9.28-105.13,20.1-29.19,23.12-41.74,44.84-40.2,86.58,1.55,41.74,6.19,60.29,6.19,60.29l24.74,13.91s3.09-77.3,12.37-92.76c9.28-15.46,68.03-10.82,94.31-17,26.28-6.19,41.75-35.56,41.75-35.56Z"/><path class="c" d="M642.66,303.23c9.27,21.65,40.19,44.84,51.02,63.39,10.82,18.56,6.19,86.58,6.19,86.58l20.1-17.01s20.1-69.57,0-112.86c-20.1-43.29-52.56-58.75-72.66-47.93-20.1,10.82-4.64,27.83-4.64,27.83Z"/></g><path class="c" d="M871.67,677.99c-5.29-7.58-14.83-7.58-14.83-7.58l-146.21-58.34-34.24-20.15c-1.1-18.06-.96-37.79,2.53-53.63,7.76-35.27-156.67-3.7-156.67-3.7,1.81,16.96,2.43,38.08,1.73,58.26l-32.67,19.22-146.22,62.21s-9.53,0-14.83,7.59c-5.3,7.58-40.18,117.61-46.54,257.35H916.28c-6.36-139.74-39.31-253.63-44.6-261.22Zm-173.02,42.77l-11.06-7.19c-4.87,21.28-11.91,44.12-18.92,69.74-19.12,69.87-46.47,138.59-51.69,145.08h-23.22c-5.21-6.49-32.36-71.34-51.48-141.21-7.27-26.57-14.39-50.09-20.13-73.38l-12.11,6.96-9.67-106.39,23.69-14.83,70.1,72.93-3.2,1.83c5.29,3.03,9.56,4.75,11.93,4.55,4.16-.34,10.33-3.5,17.66-8.86l-5.12-3.32,63.55-67.13,24.5,13.86-4.84,107.36Z"/><path class="c" d="M611.5,659.51h-14.31l-19.11,19.1s11.67,3.8,13.96,30.13c7.42,.5,9.92,.56,12.31,.48,2.39,.08,4.89,.02,12.31-.48,2.29-26.33,15.99-30.77,15.99-30.77l-21.15-18.46Z"/><path class="c" d="M615.67,705.28l-8.89-3.95v-1.78l-2.44,.89-2.44-.89v1.78l-8.89,3.95c-11.13,10.16-10.93,48.8-10.93,59v175.06h44.51v-175.06c0-10.2,.21-48.85-10.93-59Z"/><polygon class="c" points="611.5 659.51 688.02 713.5 613.22 666.6 611.5 659.51"/><polygon class="c" points="597.19 659.51 525.04 711.57 597.1 666.6 597.19 659.51"/></g></g></svg>