<?xml version="1.0" encoding="UTF-8"?><svg xmlns="http://www.w3.org/2000/svg" viewBox="0 0 1200 1200"><defs><style>.c{fill:#d2a936;}.d{fill:#ac7f00;}</style></defs><g id="a"><circle cx="600" cy="600" r="600"/></g><g id="b"><g><path class="d" d="M612.8,254.96v98.93h-25.59v-98.93c0-7.07,5.72-12.8,12.79-12.8s12.8,5.73,12.8,12.8Z"/><path class="d" d="M357.76,582.49v25.59h-98.93c-7.07,0-12.8-5.73-12.8-12.8s5.73-12.79,12.8-12.79h98.93Z"/><path class="d" d="M612.8,838.36v98.94c0,7.07-5.73,12.8-12.8,12.8s-12.79-5.73-12.79-12.8v-98.94h25.59Z"/><path class="d" d="M953.97,595.28c0,7.07-5.72,12.8-12.79,12.8h-98.94v-25.59h98.94c7.07,0,12.79,5.72,12.79,12.79Z"/><path class="c" d="M906.75,582.49c-3.46-79.37-37.06-150.92-89.63-203.48-52.76-52.74-124.63-86.4-204.32-89.66-4.24-.18-8.52-.27-12.8-.27s-8.54,.08-12.79,.27c-159.13,6.52-287.02,134.13-293.95,293.14-.22,4.51-.31,9.07-.31,13.64,0,4,.08,7.99,.23,11.95,3.05,80.05,36.75,152.23,89.7,205.17s124.63,86.41,204.34,89.67c4.24,.19,8.5,.27,12.79,.27s8.56-.09,12.8-.27c159.69-6.54,287.92-135.05,294.03-294.84,.15-3.96,.23-7.95,.23-11.95,0-4.57-.09-9.12-.31-13.64Zm-549.45,25.59h.46v-25.59h-.36c6.87-123.42,106.27-222.57,229.81-229.02v.42h25.59v-.42c58.42,3.05,111.43,26.83,151.84,64.11l-161.77,118.91c-16.22-.77-32.7,5.04-45.08,17.42-12.38,12.38-18.19,28.86-17.42,45.08l-118.91,161.77c-37.47-40.58-61.29-93.93-64.15-152.69Zm254.75,.11c-3.08,3.1-7.35,5-12.06,5-9.42,0-17.06-7.64-17.06-17.06,0-4.72,1.91-8.98,5-12.06,3.08-3.1,7.35-5,12.06-5,9.42,0,17.06,7.64,17.06,17.06,0,4.72-1.91,8.98-5,12.06Zm.74,230.61v-.43h-25.59v.43c-58.42-3.05-111.46-26.83-151.85-64.12l161.78-118.91c16.22,.78,32.68-5.03,45.08-17.41,12.38-12.38,18.18-28.86,17.41-45.08l118.91-161.78c37.12,40.2,60.84,92.9,64.07,151h-.38v25.59h.47c-6.06,124.22-105.81,224.25-229.91,230.72Z"/><path class="c" d="M357.4,582.49h.36v25.59h-.46c-.19-3.96-.28-7.95-.28-11.95,0-4.57,.12-9.12,.38-13.64Z"/><path class="c" d="M612.8,353.89h-25.59v-.42c4.24-.22,8.5-.32,12.79-.32s8.56,.11,12.8,.32v.42Z"/><path class="c" d="M587.21,838.36h25.59v.43c-4.24,.22-8.5,.32-12.8,.32s-8.54-.11-12.79-.32v-.43Z"/><path class="c" d="M778.55,431.49c-4.45-4.83-9.08-9.48-13.91-13.91l-161.77,118.91c-16.22-.77-32.7,5.04-45.08,17.42-12.38,12.38-18.19,28.86-17.42,45.08l-118.91,161.77c4.43,4.83,9.08,9.48,13.91,13.91l161.78-118.91c16.22,.78,32.68-5.03,45.08-17.41,12.38-12.38,18.18-28.86,17.41-45.08l118.91-161.78Zm-178.55,181.69c-9.42,0-17.06-7.64-17.06-17.06,0-4.72,1.91-8.98,5-12.06,3.08-3.1,7.35-5,12.06-5,9.42,0,17.06,7.64,17.06,17.06,0,4.72-1.91,8.98-5,12.06-3.08,3.1-7.35,5-12.06,5Z"/><path class="c" d="M842.99,596.13c0,4-.09,7.99-.28,11.95h-.47v-25.59h.38c.26,4.51,.38,9.07,.38,13.64Z"/><path class="c" d="M817.12,379.01l-52.49,38.58-161.77,118.91c-16.22-.77-32.7,5.04-45.08,17.42l8.1,76.33,76.34,8.11c12.38-12.38,18.18-28.86,17.41-45.08l118.91-161.78,38.58-52.49Zm-217.12,234.18c-9.42,0-17.06-7.64-17.06-17.06,0-4.72,1.91-8.98,5-12.06,3.08-3.1,7.35-5,12.06-5,9.42,0,17.06,7.64,17.06,17.06,0,4.72-1.91,8.98-5,12.06-3.08,3.1-7.35,5-12.06,5Z"/><path class="d" d="M642.23,638.36c-12.39,12.38-28.86,18.19-45.08,17.41l-161.78,118.91-52.49,38.58,38.58-52.49,118.91-161.77c-.77-16.22,5.04-32.7,17.42-45.08l30.16,30.16c-3.1,3.08-5,7.34-5,12.06,0,9.42,7.64,17.06,17.06,17.06,4.7,0,8.98-1.91,12.06-5l30.17,30.17Z"/></g></g></svg>