<?xml version="1.0" encoding="UTF-8"?><svg xmlns="http://www.w3.org/2000/svg" viewBox="0 0 1200 1200"><defs><style>.c{fill:#d2a936;}</style></defs><g id="a"><circle cx="600" cy="600" r="600"/></g><g id="b"><g><path class="c" d="M722.85,398.21c-8.47,0-15.33-6.86-15.33-15.33v-59.24c0-22.64-18.43-41.07-41.07-41.07h-132.88c-22.64,0-41.07,18.43-41.07,41.07v59.24c0,8.47-6.87,15.33-15.33,15.33s-15.33-6.86-15.33-15.33v-59.24c0-39.56,32.18-71.74,71.74-71.74h132.88c39.56,0,71.74,32.18,71.74,71.74v59.24c0,8.47-6.86,15.33-15.33,15.33Z"/><g><path class="c" d="M346.96,620.96c5.65,3.34,12.11,5.11,18.67,5.11h468.75c6.57,0,13.02-1.77,18.67-5.11l119.71-70.83v-78.04c0-26.32-21.53-47.85-47.85-47.85H275.11c-26.32,0-47.85,21.53-47.85,47.85v78.03l119.71,70.83Z"/><path class="c" d="M868.66,647.35c-10.38,6.14-22.23,9.39-34.29,9.39h-139.65v53.76c0,32.98-26.74,59.72-59.72,59.72h-70.01c-32.98,0-59.72-26.74-59.72-59.72v-53.76h-139.65c-12.05,0-23.91-3.25-34.28-9.39l-104.09-61.59v314.48c0,26.32,21.53,47.85,47.85,47.85H924.89c26.32,0,47.85-21.53,47.85-47.85v-314.48l-104.09,61.58Z"/></g><path class="c" d="M633.9,738.54h-67.81c-14.06,0-25.57-11.51-25.57-25.57h0c0-14.06,11.51-25.57,25.57-25.57h67.81c14.06,0,25.57,11.51,25.57,25.57h0c0,14.06-11.51,25.57-25.57,25.57Z"/></g></g></svg>