<?xml version="1.0" encoding="UTF-8"?><svg xmlns="http://www.w3.org/2000/svg" viewBox="0 0 1200 1200"><defs><style>.c{fill:#d2a936;}</style></defs><g id="a"><circle cx="600" cy="600" r="600"/></g><g id="b"><g><path class="c" d="M600,255.49c-190.28,0-344.51,154.22-344.51,344.51s154.22,344.51,344.51,344.51,344.52-154.23,344.52-344.51-154.23-344.51-344.52-344.51Zm26,635.81v-23.16c0-14.37-11.63-26-26-26s-26,11.63-26,26v23.16c-140.84-12.47-253.27-125.15-265.35-266.1h22.41c14.37,0,26-11.63,26-26s-11.63-26-26-26h-22.29c12.81-140.19,124.93-252.05,265.23-264.48v21.53c0,14.37,11.62,26,26,26s26-11.63,26-26v-21.53c140.3,12.43,252.42,124.29,265.23,264.48h-22.28c-14.37,0-26,11.63-26,26s11.63,26,26,26h22.41c-12.09,140.95-124.51,253.63-265.35,266.1Z"/><path class="c" d="M754.89,432.16l-154.01,161.38c-.29,0-.58-.04-.88-.04-1.93,0-3.81,.2-5.63,.55l-128.89-97.4c-8.53-6.4-20.77-4.77-27.27,3.86-6.5,8.53-4.82,20.82,3.81,27.32l128.86,97.36c1.24,15,13.8,26.81,29.13,26.81,16.15,0,29.25-13.11,29.25-29.25,0-.77-.05-1.53-.11-2.28l153.98-161.39c7.42-7.82,7.16-20.11-.65-27.58-7.77-7.46-20.11-7.11-27.58,.66Z"/></g></g></svg>