<?xml version="1.0" encoding="UTF-8"?><svg xmlns="http://www.w3.org/2000/svg" viewBox="0 0 1200 1200"><defs><style>.c{fill:#d2a936;}</style></defs><g id="a"><circle cx="600" cy="600" r="600"/></g><g id="b"><path class="c" d="M879.61,374.08H320.39c-41.82,0-75.86,34.04-75.86,75.87v300.1c0,41.84,34.04,75.87,75.86,75.87H879.61c41.82,0,75.86-34.04,75.86-75.87V449.95c0-41.84-34.04-75.87-75.86-75.87Zm-559.22,21.44H879.61c27.88,0,50.68,21.16,53.8,48.23H266.59c3.12-27.07,25.91-48.23,53.8-48.23Zm559.22,408.98H320.39c-30.02,0-54.43-24.42-54.43-54.44v-233.07H934.03v233.07c0,30.02-24.41,54.44-54.43,54.44Z"/></g></svg>